<?xml version="1.0" standalone="no"?><svg xmlns:xlink="http://www.w3.org/1999/xlink" xmlns="http://www.w3.org/2000/svg" viewBox="0 0 1000 1400.010536297545" preserveAspectRatio="xMaxYMax slice"><g transform="scale(3.292592982825835)"><rect x="0" y="0" width="303.7142857142857" height="425.20000000000005" fill="#ffffff"/><rect x="0" y="0" width="60.74" height="60.74" fill="#f76144"/><polygon points="0,0 60.74,0 60.74,60.74" fill="#fbb5a8"/><rect x="60.74285714285715" y="0" width="60.74285714285715" height="60.74285714285715" fill="#ffffff"/><rect x="60.74" y="0" width="30.37" height="30.37" fill="#f53b16"/><polygon points="91.11,0 91.11,30.37 60.74,30.37" fill="#f8775d"/><rect x="91.11" y="0" width="30.37" height="30.37" fill="#696969"/><polygon points="91.11,0 121.48,30.37 91.11,30.37" fill="#fbb1a3"/><rect x="60.74" y="30.37" width="30.37" height="30.37" fill="#f76548"/><polygon points="60.74,30.37 91.11,30.37 91.11,60.74" fill="#f8f8f8"/><rect x="91.11" y="30.37" width="30.37" height="30.37" fill="#fbab9b"/><polygon points="91.11,30.37 121.48,60.74 91.11,60.74" fill="#464646"/><rect x="121.49" y="0" width="60.74" height="60.74" fill="#fffaf9"/><polygon points="121.49,0 182.23,0 182.23,60.74" fill="#3c3c3c"/><rect x="182.22857142857146" y="0" width="60.74285714285715" height="60.74285714285715" fill="#ffffff"/><rect x="182.23" y="0" width="30.37" height="30.37" fill="#434343"/><polygon points="212.6,0 212.6,30.37 182.23,30.37" fill="#888888"/><rect x="212.6" y="0" width="30.37" height="30.37" fill="#f8745a"/><polygon points="212.6,0 242.97,0 242.97,30.37" fill="#fcbdb1"/><rect x="182.23" y="30.37" width="30.37" height="30.37" fill="#f53711"/><polygon points="182.23,30.37 212.6,60.74 182.23,60.74" fill="#fffefe"/><rect x="212.6" y="30.37" width="30.37" height="30.37" fill="#b9b9b9"/><polygon points="212.6,30.37 242.97,60.74 212.6,60.74" fill="#efefef"/><rect x="242.9714285714286" y="0" width="60.74285714285715" height="60.74285714285715" fill="#ffffff"/><rect x="242.97" y="0" width="30.37" height="30.37" fill="#545454"/><polygon points="273.34,0 273.34,30.37 242.97,30.37" fill="#e9e9e9"/><rect x="273.34" y="0" width="30.37" height="30.37" fill="#f98e79"/><polygon points="303.71,0 303.71,30.37 273.34,30.37" fill="#b4b4b4"/><rect x="242.97" y="30.37" width="30.37" height="30.37" fill="#feece9"/><polygon points="273.34,30.37 273.34,60.74 242.97,60.74" fill="#faa392"/><rect x="273.34" y="30.37" width="30.37" height="30.37" fill="#fa9f8d"/><polygon points="273.34,30.37 303.71,30.37 303.71,60.74" fill="#fdd3cb"/><rect x="0" y="60.74285714285715" width="60.74285714285715" height="60.74285714285715" fill="#ffffff"/><rect x="0" y="60.74" width="30.37" height="30.37" fill="#fba999"/><polygon points="0,60.74 30.37,60.74 0,91.11" fill="#f9856e"/><rect x="30.37" y="60.74" width="30.37" height="30.37" fill="#565656"/><polygon points="30.37,60.74 60.74,91.11 30.37,91.11" fill="#f7684b"/><rect x="0" y="91.11" width="30.37" height="30.37" fill="#f42d05"/><polygon points="0,91.11 30.37,91.11 0,121.48" fill="#fcbcaf"/><rect x="30.37" y="91.11" width="30.37" height="30.37" fill="#3f3f3f"/><polygon points="30.37,91.11 60.74,91.11 60.74,121.48" fill="#fddad2"/><rect x="60.74285714285715" y="60.74285714285715" width="60.74285714285715" height="60.74285714285715" fill="#ffffff"/><rect x="60.74" y="60.74" width="30.37" height="30.37" fill="#a3a3a3"/><polygon points="91.11,60.74 91.11,91.11 60.74,91.11" fill="#f65b3b"/><rect x="91.11" y="60.74" width="30.37" height="30.37" fill="#f64f2e"/><polygon points="91.11,60.74 121.48,60.74 121.48,91.11" fill="#d5d5d5"/><rect x="60.74" y="91.11" width="30.37" height="30.37" fill="#f7674b"/><polygon points="60.74,91.11 91.11,91.11 60.74,121.48" fill="#fcc0b4"/><rect x="91.11" y="91.11" width="30.37" height="30.37" fill="#4a4a4a"/><polygon points="91.11,91.11 121.48,91.11 91.11,121.48" fill="#f87f66"/><rect x="121.4857142857143" y="60.74285714285715" width="60.74285714285715" height="60.74285714285715" fill="#ffffff"/><rect x="121.49" y="60.74" width="30.37" height="30.37" fill="#bfbfbf"/><polygon points="121.49,60.74 151.85999999999999,91.11 121.49,91.11" fill="#bbbbbb"/><rect x="151.86" y="60.74" width="30.37" height="30.37" fill="#feece8"/><polygon points="182.23000000000002,60.74 182.23000000000002,91.11 151.86,91.11" fill="#f8755b"/><rect x="121.49" y="91.11" width="30.37" height="30.37" fill="#5b5b5b"/><polygon points="121.49,91.11 151.85999999999999,121.48 121.49,121.48" fill="#ececec"/><rect x="151.86" y="91.11" width="30.37" height="30.37" fill="#efefef"/><polygon points="182.23000000000002,91.11 182.23000000000002,121.48 151.86,121.48" fill="#3e3e3e"/><rect x="182.23" y="60.74" width="60.74" height="60.74" fill="#f64927"/><polygon points="182.23,60.74 242.97,121.48 182.23,121.48" fill="#fddad4"/><rect x="242.97" y="60.74" width="60.74" height="60.74" fill="#757575"/><polygon points="242.97,60.74 303.71,121.48 242.97,121.48" fill="#fbb6a9"/><rect x="0" y="121.4857142857143" width="60.74285714285715" height="60.74285714285715" fill="#ffffff"/><rect x="0" y="121.49" width="30.37" height="30.37" fill="#f42c05"/><polygon points="0,121.49 30.37,151.85999999999999 0,151.85999999999999" fill="#4f4f4f"/><rect x="30.37" y="121.49" width="30.37" height="30.37" fill="#f88169"/><polygon points="30.37,121.49 60.74,121.49 30.37,151.85999999999999" fill="#f87e66"/><rect x="0" y="151.86" width="30.37" height="30.37" fill="#404040"/><polygon points="0,151.86 30.37,151.86 30.37,182.23000000000002" fill="#bdbdbd"/><rect x="30.37" y="151.86" width="30.37" height="30.37" fill="#5e5e5e"/><polygon points="30.37,151.86 60.74,151.86 30.37,182.23000000000002" fill="#fccac0"/><rect x="60.74" y="121.49" width="60.74" height="60.74" fill="#ececec"/><polygon points="60.74,121.49 121.48,182.23 60.74,182.23" fill="#fcc7bd"/><rect x="121.49" y="121.49" width="60.74" height="60.74" fill="#b2b2b2"/><polygon points="182.23,121.49 182.23,182.23 121.49,182.23" fill="#2d2d2d"/><rect x="182.22857142857146" y="121.4857142857143" width="60.74285714285715" height="60.74285714285715" fill="#ffffff"/><rect x="182.23" y="121.49" width="30.37" height="30.37" fill="#f65434"/><polygon points="212.6,121.49 212.6,151.85999999999999 182.23,151.85999999999999" fill="#feece9"/><rect x="212.6" y="121.49" width="30.37" height="30.37" fill="#e4e4e4"/><polygon points="212.6,121.49 242.97,121.49 212.6,151.85999999999999" fill="#717171"/><rect x="182.23" y="151.86" width="30.37" height="30.37" fill="#fdd5cd"/><polygon points="182.23,151.86 212.6,151.86 212.6,182.23000000000002" fill="#f9836b"/><rect x="212.6" y="151.86" width="30.37" height="30.37" fill="#f53e1a"/><polygon points="242.97,151.86 242.97,182.23000000000002 212.6,182.23000000000002" fill="#c7c7c7"/><rect x="242.97" y="121.49" width="60.74" height="60.74" fill="#fde1dc"/><polygon points="242.97,121.49 303.71,121.49 242.97,182.23" fill="#dcdcdc"/><rect x="0" y="182.22857142857146" width="60.74285714285715" height="60.74285714285715" fill="#ffffff"/><rect x="0" y="182.23" width="30.37" height="30.37" fill="#fef5f3"/><polygon points="30.37,182.23 30.37,212.6 0,212.6" fill="#b7b7b7"/><rect x="30.37" y="182.23" width="30.37" height="30.37" fill="#f42d06"/><polygon points="30.37,182.23 60.74,212.6 30.37,212.6" fill="#818181"/><rect x="0" y="212.6" width="30.37" height="30.37" fill="#414141"/><polygon points="0,212.6 30.37,212.6 30.37,242.97" fill="#7d7d7d"/><rect x="30.37" y="212.6" width="30.37" height="30.37" fill="#616161"/><polygon points="60.74,212.6 60.74,242.97 30.37,242.97" fill="#bebebe"/><rect x="60.74285714285715" y="182.22857142857146" width="60.74285714285715" height="60.74285714285715" fill="#ffffff"/><rect x="60.74" y="182.23" width="30.37" height="30.37" fill="#f87359"/><polygon points="60.74,182.23 91.11,182.23 91.11,212.6" fill="#f75c3d"/><rect x="91.11" y="182.23" width="30.37" height="30.37" fill="#f0f0f0"/><polygon points="121.48,182.23 121.48,212.6 91.11,212.6" fill="#f87e65"/><rect x="60.74" y="212.6" width="30.37" height="30.37" fill="#5b5b5b"/><polygon points="60.74,212.6 91.11,212.6 60.74,242.97" fill="#fba999"/><rect x="91.11" y="212.6" width="30.37" height="30.37" fill="#fffdfc"/><polygon points="91.11,212.6 121.48,212.6 91.11,242.97" fill="#727272"/><rect x="121.49" y="182.23" width="60.74" height="60.74" fill="#f8785f"/><polygon points="182.23,182.23 182.23,242.97 121.49,242.97" fill="#faa897"/><rect x="182.23" y="182.23" width="60.74" height="60.74" fill="#fee4de"/><polygon points="242.97,182.23 242.97,242.97 182.23,242.97" fill="#f53f1b"/><rect x="242.9714285714286" y="182.22857142857146" width="60.74285714285715" height="60.74285714285715" fill="#ffffff"/><rect x="242.97" y="182.23" width="30.37" height="30.37" fill="#fffaf9"/><polygon points="273.34,182.23 273.34,212.6 242.97,212.6" fill="#979797"/><rect x="273.34" y="182.23" width="30.37" height="30.37" fill="#fcbfb3"/><polygon points="273.34,182.23 303.71,182.23 303.71,212.6" fill="#323232"/><rect x="242.97" y="212.6" width="30.37" height="30.37" fill="#c8c8c8"/><polygon points="273.34,212.6 273.34,242.97 242.97,242.97" fill="#f98973"/><rect x="273.34" y="212.6" width="30.37" height="30.37" fill="#fef4f2"/><polygon points="303.71,212.6 303.71,242.97 273.34,242.97" fill="#f65738"/><rect x="0" y="242.97" width="60.74" height="60.74" fill="#333333"/><polygon points="0,242.97 60.74,303.71 0,303.71" fill="#484848"/><rect x="60.74" y="242.97" width="60.74" height="60.74" fill="#939393"/><polygon points="121.48,242.97 121.48,303.71 60.74,303.71" fill="#a1a1a1"/><rect x="121.4857142857143" y="242.9714285714286" width="60.74285714285715" height="60.74285714285715" fill="#ffffff"/><rect x="121.49" y="242.97" width="30.37" height="30.37" fill="#f54521"/><polygon points="121.49,242.97 151.85999999999999,242.97 121.49,273.34" fill="#f7694d"/><rect x="151.86" y="242.97" width="30.37" height="30.37" fill="#f88169"/><polygon points="151.86,242.97 182.23000000000002,273.34 151.86,273.34" fill="#f9846d"/><rect x="121.49" y="273.34" width="30.37" height="30.37" fill="#d7d7d7"/><polygon points="121.49,273.34 151.85999999999999,303.71 121.49,303.71" fill="#2d2d2d"/><rect x="151.86" y="273.34" width="30.37" height="30.37" fill="#b8b8b8"/><polygon points="151.86,273.34 182.23000000000002,273.34 182.23000000000002,303.71" fill="#f53610"/><rect x="182.23" y="242.97" width="60.74" height="60.74" fill="#eaeaea"/><polygon points="182.23,242.97 242.97,242.97 242.97,303.71" fill="#fbb2a4"/><rect x="242.97" y="242.97" width="60.74" height="60.74" fill="#fffbfa"/><polygon points="242.97,242.97 303.71,303.71 242.97,303.71" fill="#b6b6b6"/><rect x="0" y="303.71" width="60.74" height="60.74" fill="#fa9c89"/><polygon points="0,303.71 60.74,303.71 60.74,364.45" fill="#b1b1b1"/><rect x="60.74" y="303.71" width="60.74" height="60.74" fill="#e0e0e0"/><polygon points="60.74,303.71 121.48,303.71 121.48,364.45" fill="#c8c8c8"/><rect x="121.4857142857143" y="303.7142857142857" width="60.74285714285715" height="60.74285714285715" fill="#ffffff"/><rect x="121.49" y="303.71" width="30.37" height="30.37" fill="#fee6e1"/><polygon points="151.85999999999999,303.71 151.85999999999999,334.08 121.49,334.08" fill="#bdbdbd"/><rect x="151.86" y="303.71" width="30.37" height="30.37" fill="#9d9d9d"/><polygon points="151.86,303.71 182.23000000000002,334.08 151.86,334.08" fill="#c2c2c2"/><rect x="121.49" y="334.09" width="30.37" height="30.37" fill="#f9927d"/><polygon points="151.85999999999999,334.09 151.85999999999999,364.46 121.49,364.46" fill="#3a3a3a"/><rect x="151.86" y="334.09" width="30.37" height="30.37" fill="#7c7c7c"/><polygon points="151.86,334.09 182.23000000000002,334.09 182.23000000000002,364.46" fill="#fbbaad"/><rect x="182.23" y="303.71" width="60.74" height="60.74" fill="#fddfd9"/><polygon points="182.23,303.71 242.97,303.71 242.97,364.45" fill="#f9927d"/><rect x="242.9714285714286" y="303.7142857142857" width="60.74285714285715" height="60.74285714285715" fill="#ffffff"/><rect x="242.97" y="303.71" width="30.37" height="30.37" fill="#a7a7a7"/><polygon points="242.97,303.71 273.34,303.71 273.34,334.08" fill="#f87358"/><rect x="273.34" y="303.71" width="30.37" height="30.37" fill="#8f8f8f"/><polygon points="273.34,303.71 303.71,303.71 303.71,334.08" fill="#faa594"/><rect x="242.97" y="334.09" width="30.37" height="30.37" fill="#cdcdcd"/><polygon points="273.34,334.09 273.34,364.46 242.97,364.46" fill="#fbb1a3"/><rect x="273.34" y="334.09" width="30.37" height="30.37" fill="#f3f3f3"/><polygon points="273.34,334.09 303.71,334.09 273.34,364.46" fill="#e2e2e2"/><rect x="0" y="364.46" width="60.74" height="60.74" fill="#585858"/><polygon points="0,364.46 60.74,364.46 60.74,425.2" fill="#535353"/><rect x="60.74285714285715" y="364.4571428571429" width="60.74285714285715" height="60.74285714285715" fill="#ffffff"/><rect x="60.74" y="364.46" width="30.37" height="30.37" fill="#727272"/><polygon points="60.74,364.46 91.11,364.46 91.11,394.83" fill="#fcfcfc"/><rect x="91.11" y="364.46" width="30.37" height="30.37" fill="#f88169"/><polygon points="121.48,364.46 121.48,394.83 91.11,394.83" fill="#faa18f"/><rect x="60.74" y="394.83" width="30.37" height="30.37" fill="#f53c17"/><polygon points="91.11,394.83 91.11,425.2 60.74,425.2" fill="#fcc8be"/><rect x="91.11" y="394.83" width="30.37" height="30.37" fill="#d2d2d2"/><polygon points="91.11,394.83 121.48,425.2 91.11,425.2" fill="#f64926"/><rect x="121.49" y="364.46" width="60.74" height="60.74" fill="#dddddd"/><polygon points="121.49,364.46 182.23,364.46 121.49,425.2" fill="#f87a61"/><rect x="182.22857142857146" y="364.4571428571429" width="60.74285714285715" height="60.74285714285715" fill="#ffffff"/><rect x="182.23" y="364.46" width="30.37" height="30.37" fill="#f53610"/><polygon points="182.23,364.46 212.6,364.46 182.23,394.83" fill="#fdd5ce"/><rect x="212.6" y="364.46" width="30.37" height="30.37" fill="#f76244"/><polygon points="212.6,364.46 242.97,364.46 212.6,394.83" fill="#686868"/><rect x="182.23" y="394.83" width="30.37" height="30.37" fill="#b4b4b4"/><polygon points="182.23,394.83 212.6,394.83 182.23,425.2" fill="#9a9a9a"/><rect x="212.6" y="394.83" width="30.37" height="30.37" fill="#696969"/><polygon points="212.6,394.83 242.97,394.83 212.6,425.2" fill="#fdd4cc"/><rect x="242.9714285714286" y="364.4571428571429" width="60.74285714285715" height="60.74285714285715" fill="#ffffff"/><rect x="242.97" y="364.46" width="30.37" height="30.37" fill="#fdd9d2"/><polygon points="242.97,364.46 273.34,394.83 242.97,394.83" fill="#999999"/><rect x="273.34" y="364.46" width="30.37" height="30.37" fill="#7f7f7f"/><polygon points="273.34,364.46 303.71,394.83 273.34,394.83" fill="#f5f5f5"/><rect x="242.97" y="394.83" width="30.37" height="30.37" fill="#feece8"/><polygon points="242.97,394.83 273.34,394.83 273.34,425.2" fill="#c6c6c6"/><rect x="273.34" y="394.83" width="30.37" height="30.37" fill="#f5350f"/><polygon points="273.34,394.83 303.71,394.83 273.34,425.2" fill="#d6d6d6"/></g></svg>