<?xml version="1.0" standalone="no"?><svg xmlns:xlink="http://www.w3.org/1999/xlink" xmlns="http://www.w3.org/2000/svg" viewBox="0 0 1000 312.5" preserveAspectRatio="xMaxYMax slice"><g transform="scale(0.8880994671403197)"><rect x="0" y="0" width="1126" height="351.875" fill="#2a2a2a"/><path d="M 351.88 70.38 A 70.38 70.38 0 0 1  422.26 0 L 351.88 70.38 A 70.38 70.38 0 0 0 422.26 0" fill="#141414"/><path d="M 422.25 0 A 70.38 70.38 0 0 1  492.63 70.38 L 422.25 0 A 70.38 70.38 0 0 0 492.63 70.38" fill="#010101"/><rect x="985.25" y="0" width="70.375" height="70.375" fill="#2a2a2a"/><path d="M 1020.44 35.19 A 35.19 35.19 0 0 1  1055.63 0 L 1020.44 35.19 A 35.19 35.19 0 0 0 1055.63 0" fill="#b92b0e"/><rect x="211.125" y="70.375" width="70.375" height="70.375" fill="#2a2a2a"/><rect x="281.5" y="70.375" width="70.375" height="70.375" fill="#2a2a2a"/><path d="M 351.88 70.38 A 70.38 70.38 0 0 1  422.26 140.76 L 351.88 70.38 A 70.38 70.38 0 0 0 422.26 140.76" fill="#2e2a29"/><path d="M 633.38 140.76 A 70.38 70.38 0 0 1  703.76 70.38 L 633.38 140.76 A 70.38 70.38 0 0 0 703.76 70.38" fill="#161616"/><rect x="914.875" y="70.375" width="70.375" height="70.375" fill="#2a2a2a"/><path d="M 914.88 105.57 A 35.19 35.19 0 0 1  950.0699999999999 70.38 L 914.88 105.57 A 35.19 35.19 0 0 0 950.0699999999999 70.38" fill="#c62b0c"/><path d="M 950.06 70.38 A 35.19 35.19 0 0 1  985.25 105.57 L 950.06 70.38 A 35.19 35.19 0 0 0 985.25 105.57" fill="#161616"/><path d="M 950.06 140.75 A 35.19 35.19 0 0 1  985.25 105.56 L 950.06 140.75 A 35.19 35.19 0 0 0 985.25 105.56" fill="#202020"/><rect x="985.25" y="70.375" width="70.375" height="70.375" fill="#2a2a2a"/><path d="M 1020.44 105.57 A 35.19 35.19 0 0 1  1055.63 70.38 L 1020.44 105.57 A 35.19 35.19 0 0 0 1055.63 70.38" fill="#1e1e1e"/><path d="M 1020.44 105.56 A 35.19 35.19 0 0 1  1055.63 140.75 L 1020.44 105.56 A 35.19 35.19 0 0 0 1055.63 140.75" fill="#161616"/><path d="M 281.5 211.13 A 70.38 70.38 0 0 1  351.88 140.75 L 281.5 211.13 A 70.38 70.38 0 0 0 351.88 140.75" fill="#050505"/><path d="M 422.25 211.13 A 70.38 70.38 0 0 1  492.63 140.75 L 422.25 211.13 A 70.38 70.38 0 0 0 492.63 140.75" fill="#242424"/><path d="M 844.5 140.75 A 70.38 70.38 0 0 1  914.88 211.13 L 844.5 140.75 A 70.38 70.38 0 0 0 914.88 211.13" fill="#161616"/><rect x="914.875" y="140.75" width="70.375" height="70.375" fill="#2a2a2a"/><path d="M 950.06 140.75 A 35.19 35.19 0 0 1  985.25 175.94 L 950.06 140.75 A 35.19 35.19 0 0 0 985.25 175.94" fill="#121212"/><path d="M 985.25 211.13 A 70.38 70.38 0 0 1  1055.63 140.75 L 985.25 211.13 A 70.38 70.38 0 0 0 1055.63 140.75" fill="#1e1e1e"/><rect x="1055.625" y="140.75" width="70.375" height="70.375" fill="#2a2a2a"/><path d="M 281.5 281.51 A 70.38 70.38 0 0 1  351.88 211.13 L 281.5 281.51 A 70.38 70.38 0 0 0 351.88 211.13" fill="#040404"/><rect x="422.25" y="211.125" width="70.375" height="70.375" fill="#2a2a2a"/><path d="M 140.75 281.5 A 70.38 70.38 0 0 1  211.13 351.88 L 140.75 281.5 A 70.38 70.38 0 0 0 211.13 351.88" fill="#8c2a17"/><path d="M 211.13 281.5 A 70.38 70.38 0 0 1  281.51 351.88 L 211.13 281.5 A 70.38 70.38 0 0 0 281.51 351.88" fill="#3a2a27"/><path d="M 633.38 351.88 A 70.38 70.38 0 0 1  703.76 281.5 L 633.38 351.88 A 70.38 70.38 0 0 0 703.76 281.5" fill="#882a18"/><path d="M 844.5 351.88 A 70.38 70.38 0 0 1  914.88 281.5 L 844.5 351.88 A 70.38 70.38 0 0 0 914.88 281.5" fill="#1b1b1b"/><path d="M 1055.63 281.5 A 70.38 70.38 0 0 1  1126.0100000000002 351.88 L 1055.63 281.5 A 70.38 70.38 0 0 0 1126.0100000000002 351.88" fill="#171717"/></g></svg>