<?xml version="1.0" standalone="no"?><svg xmlns:xlink="http://www.w3.org/1999/xlink" xmlns="http://www.w3.org/2000/svg" viewBox="0 0 1000 1400.010536297545" preserveAspectRatio="xMaxYMax slice"><g transform="scale(3.292592982825835)"><rect x="0" y="0" width="303.7142857142857" height="425.20000000000005" fill="#ffffff"/><rect x="0" y="0" width="60.74" height="60.74" fill="#f4330d"/><path d="M 0 0 A 60.74 60.74 0 0 0 60.74 60.74 L 60.74 0L0 0" fill="#d8d8d8"/><rect x="60.74" y="0" width="60.74" height="60.74" fill="#fee6e1"/><path d="M 60.74 0 A 60.74 60.74 0 0 1  121.48 60.74 L 60.74 0 A 60.74 60.74 0 0 0 121.48 60.74" fill="#f87258"/><rect x="121.49" y="0" width="60.74" height="60.74" fill="#2b2b2b"/><path d="M 121.49 60.74 A 60.74 60.74 0 0 0 182.23 0 L 121.49 0L121.49 60.74" fill="#f9927d"/><rect x="182.23" y="0" width="60.74" height="60.74" fill="#fff7f5"/><path d="M 182.23 0 A 60.74 60.74 0 0 0 242.97 60.74 L 242.97 0L182.23 0" fill="#626262"/><rect x="242.97" y="0" width="60.74" height="60.74" fill="#f8775d"/><path d="M 242.97 0 A 60.74 60.74 0 0 1  303.71 60.74 L 242.97 0 A 60.74 60.74 0 0 0 303.71 60.74" fill="#3b3b3b"/><rect x="0" y="60.74" width="60.74" height="60.74" fill="#fff6f4"/><path d="M 0 60.74 A 60.74 60.74 0 0 1 60.74 121.48 L 0 121.48L0 60.74" fill="#696969"/><rect x="60.74" y="60.74" width="60.74" height="60.74" fill="#f64e2d"/><path d="M 60.74 121.48 A 60.74 60.74 0 0 0 121.48 60.74 L 60.74 60.74L60.74 121.48" fill="#fee9e5"/><rect x="121.49" y="60.74" width="60.74" height="60.74" fill="#fdd0c8"/><path d="M 121.49 60.74 A 60.74 60.74 0 0 1  182.23 121.48 L 121.49 60.74 A 60.74 60.74 0 0 0 182.23 121.48" fill="#2d2d2d"/><rect x="182.23" y="60.74" width="60.74" height="60.74" fill="#feeae6"/><path d="M 182.23 60.74 A 60.74 60.74 0 0 1  242.97 121.48 L 182.23 60.74 A 60.74 60.74 0 0 0 242.97 121.48" fill="#727272"/><rect x="242.97" y="60.74" width="60.74" height="60.74" fill="#818181"/><path d="M 242.97 121.48 A 60.74 60.74 0 0 1  303.71 60.74 L 242.97 121.48 A 60.74 60.74 0 0 0 303.71 60.74" fill="#d7d7d7"/><rect x="0" y="121.49" width="60.74" height="60.74" fill="#fdd0c7"/><path d="M 0 121.49 A 60.74 60.74 0 0 1 60.74 182.23 L 0 182.23L0 121.49" fill="#3c3c3c"/><rect x="60.74" y="121.49" width="60.74" height="60.74" fill="#d9d9d9"/><path d="M 60.74 121.49 A 60.74 60.74 0 0 0 121.48 182.23 L 121.48 121.49L60.74 121.49" fill="#fffefe"/><rect x="121.49" y="121.49" width="60.74" height="60.74" fill="#484848"/><path d="M 121.49 182.23 A 60.74 60.74 0 0 1  182.23 121.49 L 182.23 182.23L121.49 182.23" fill="#f3f3f3"/><rect x="182.23" y="121.49" width="60.74" height="60.74" fill="#fef4f2"/><path d="M 182.23 182.23 A 60.74 60.74 0 0 1  242.97 121.49 L 182.23 182.23 A 60.74 60.74 0 0 0 242.97 121.49" fill="#cccccc"/><rect x="242.97" y="121.49" width="60.74" height="60.74" fill="#8e8e8e"/><path d="M 242.97 182.23 A 60.74 60.74 0 0 0 303.71 121.49 L 242.97 121.49L242.97 182.23" fill="#a9a9a9"/><rect x="0" y="182.23" width="60.74" height="60.74" fill="#f7684b"/><path d="M 0 242.97 A 60.74 60.74 0 0 1  60.74 182.23 L 0 242.97 A 60.74 60.74 0 0 0 60.74 182.23" fill="#424242"/><rect x="60.74" y="182.23" width="60.74" height="60.74" fill="#f53712"/><path d="M 60.74 182.23 A 60.74 60.74 0 0 1  121.48 242.97 L 60.74 182.23 A 60.74 60.74 0 0 0 121.48 242.97" fill="#f87f66"/><rect x="121.49" y="182.23" width="60.74" height="60.74" fill="#feefec"/><path d="M 121.49 182.23 A 60.74 60.74 0 0 1  182.23 242.97 L 121.49 182.23 A 60.74 60.74 0 0 0 182.23 242.97" fill="#fbaf9f"/><rect x="182.23" y="182.23" width="60.74" height="60.74" fill="#f9937f"/><path d="M 182.23 182.23 A 60.74 60.74 0 0 0 242.97 242.97 L 242.97 182.23L182.23 182.23" fill="#404040"/><rect x="242.97" y="182.23" width="60.74" height="60.74" fill="#fa9d8b"/><path d="M 242.97 242.97 A 60.74 60.74 0 0 1  303.71 182.23 L 242.97 242.97 A 60.74 60.74 0 0 0 303.71 182.23" fill="#848484"/><rect x="0" y="242.97" width="60.74" height="60.74" fill="#404040"/><path d="M 0 303.71 A 60.74 60.74 0 0 1  60.74 242.97 L 60.74 303.71L0 303.71" fill="#fcc2b6"/><rect x="60.74" y="242.97" width="60.74" height="60.74" fill="#505050"/><path d="M 60.74 303.71 A 60.74 60.74 0 0 1  121.48 242.97 L 60.74 303.71 A 60.74 60.74 0 0 0 121.48 242.97" fill="#f98b76"/><rect x="121.49" y="242.97" width="60.74" height="60.74" fill="#f87459"/><path d="M 121.49 242.97 A 60.74 60.74 0 0 1 182.23 303.71 L 121.49 303.71L121.49 242.97" fill="#f53f1b"/><rect x="182.23" y="242.97" width="60.74" height="60.74" fill="#f87d65"/><path d="M 182.23 303.71 A 60.74 60.74 0 0 1  242.97 242.97 L 182.23 303.71 A 60.74 60.74 0 0 0 242.97 242.97" fill="#fef1ee"/><rect x="242.97" y="242.97" width="60.74" height="60.74" fill="#d6d6d6"/><path d="M 242.97 242.97 A 60.74 60.74 0 0 1 303.71 303.71 L 242.97 303.71L242.97 242.97" fill="#7b7b7b"/><rect x="0" y="303.71" width="60.74" height="60.74" fill="#494949"/><path d="M 0 303.71 A 60.74 60.74 0 0 1  60.74 364.45 L 0 303.71 A 60.74 60.74 0 0 0 60.74 364.45" fill="#fff6f4"/><rect x="60.74" y="303.71" width="60.74" height="60.74" fill="#f9f9f9"/><path d="M 60.74 364.45 A 60.74 60.74 0 0 1  121.48 303.71 L 60.74 364.45 A 60.74 60.74 0 0 0 121.48 303.71" fill="#b4b4b4"/><rect x="121.49" y="303.71" width="60.74" height="60.74" fill="#3e3e3e"/><path d="M 121.49 364.45 A 60.74 60.74 0 0 1  182.23 303.71 L 182.23 364.45L121.49 364.45" fill="#feefec"/><rect x="182.23" y="303.71" width="60.74" height="60.74" fill="#393939"/><path d="M 182.23 303.71 A 60.74 60.74 0 0 1  242.97 364.45 L 182.23 303.71 A 60.74 60.74 0 0 0 242.97 364.45" fill="#9b9b9b"/><rect x="242.97" y="303.71" width="60.74" height="60.74" fill="#fef5f3"/><path d="M 242.97 364.45 A 60.74 60.74 0 0 1  303.71 303.71 L 242.97 364.45 A 60.74 60.74 0 0 0 303.71 303.71" fill="#f53d18"/><rect x="0" y="364.46" width="60.74" height="60.74" fill="#484848"/><path d="M 0 364.46 A 60.74 60.74 0 0 1 60.74 425.2 L 0 425.2L0 364.46" fill="#f98b76"/><rect x="60.74" y="364.46" width="60.74" height="60.74" fill="#f5411d"/><path d="M 60.74 364.46 A 60.74 60.74 0 0 1 121.48 425.2 L 60.74 425.2L60.74 364.46" fill="#fbb5a7"/><rect x="121.49" y="364.46" width="60.74" height="60.74" fill="#585858"/><path d="M 121.49 364.46 A 60.74 60.74 0 0 1 182.23 425.2 L 121.49 425.2L121.49 364.46" fill="#9b9b9b"/><rect x="182.23" y="364.46" width="60.74" height="60.74" fill="#707070"/><path d="M 182.23 425.2 A 60.74 60.74 0 0 1  242.97 364.46 L 242.97 425.2L182.23 425.2" fill="#f7694d"/><rect x="242.97" y="364.46" width="60.74" height="60.74" fill="#5d5d5d"/><path d="M 242.97 364.46 A 60.74 60.74 0 0 1 303.71 425.2 L 242.97 425.2L242.97 364.46" fill="#fba999"/></g></svg>