<?xml version="1.0" standalone="no"?><svg xmlns:xlink="http://www.w3.org/1999/xlink" xmlns="http://www.w3.org/2000/svg" viewBox="0 0 1000 583.3351625436266" preserveAspectRatio="xMaxYMax slice"><g transform="scale(1.3719077199991219)"><rect x="0" y="0" width="728.9142857142858" height="425.20000000000005" fill="#2a2a2a"/><g transform="translate(267.27,24.3) scale(0.6075) rotate(0)"><path d="M13 0H20V7L7 20H0V13L13 0Z" fill="#7b311a"/></g><g transform="translate(449.5,24.3) scale(0.6075) rotate(0)"><path d="M13 0H20V7L7 20H0V13L13 0Z" fill="#72301c"/></g><g transform="translate(692.47,24.3) scale(0.6075) rotate(0)"><path d="M13 0H20V7L7 20H0V13L13 0Z" fill="#652f1f"/></g><g transform="translate(441.17,76.71) scale(1.4405) rotate(0)"><path d="M13 0H20V7L7 20H0V13L13 0Z" fill="#71301c"/></g><g transform="translate(565.98,80.04) scale(1.1075) rotate(0)"><path d="M13 0H20V7L7 20H0V13L13 0Z" fill="#ce380a"/></g><g transform="translate(139.12,139.12) scale(1.274) rotate(0)"><path d="M13 0H20V7L7 20H0V13L13 0Z" fill="#ae3511"/></g><g transform="translate(311.35,129.12) scale(2.2735) rotate(0)"><path d="M13 0H20V7L7 20H0V13L13 0Z" fill="#602f20"/></g><g transform="translate(372.09,129.12) scale(2.2735) rotate(0)"><path d="M13 0H20V7L7 20H0V13L13 0Z" fill="#c5370c"/></g><rect x="496.9112816326531" y="132.45413877551022" width="38.806008163265304" height="38.806008163265304" fill="#2a2a2a"/><g transform="translate(496.91,132.45) scale(0.97) rotate(0)"><path d="M13 0H20V7L7 20H0V13L13 0Z" fill="#71301c"/></g><g transform="translate(560.99,135.79) scale(1.607) rotate(0)"><path d="M13 0H20V7L7 20H0V13L13 0Z" fill="#963315"/></g><g transform="translate(689.14,142.45) scale(0.9404999999999999) rotate(0)"><path d="M13 0H20V7L7 20H0V13L13 0Z" fill="#df3907"/></g><rect x="24.29714285714286" y="206.52571428571432" width="12.14857142857143" height="12.14857142857143" fill="#2a2a2a"/><g transform="translate(24.3,212.6) scale(0.3035) rotate(0)"><path d="M13 0H20V7L7 20H0V13L13 0Z" fill="#572e21"/></g><rect x="80.18057142857144" y="201.66628571428575" width="21.86742857142857" height="21.86742857142857" fill="#2a2a2a"/><g transform="translate(91.11,201.67) scale(0.5465) rotate(0)"><path d="M13 0H20V7L7 20H0V13L13 0Z" fill="#ac3511"/></g><rect x="136.06400000000002" y="196.80685714285718" width="31.586285714285715" height="31.586285714285715" fill="#2a2a2a"/><g transform="translate(425.2,182.23) scale(3.037) rotate(0)"><path d="M13 0H20V7L7 20H0V13L13 0Z" fill="#5d2e20"/></g><g transform="translate(622.01,196.81) scale(1.5795) rotate(0)"><path d="M13 0H20V7L7 20H0V13L13 0Z" fill="#ae3510"/></g><g transform="translate(687.61,201.67) scale(1.0935000000000001) rotate(0)"><path d="M13 0H20V7L7 20H0V13L13 0Z" fill="#5c2e20"/></g><g transform="translate(24.3,267.27) scale(0.6075) rotate(0)"><path d="M13 0H20V7L7 20H0V13L13 0Z" fill="#cb380b"/></g><g transform="translate(136.06,257.55) scale(1.5795) rotate(0)"><path d="M13 0H20V7L7 20H0V13L13 0Z" fill="#a83512"/></g><g transform="translate(247.83,247.83) scale(2.551) rotate(0)"><path d="M13 0H20V7L7 20H0V13L13 0Z" fill="#5c2e20"/></g><g transform="translate(425.2,242.97) scale(3.037) rotate(0)"><path d="M13 0H20V7L7 20H0V13L13 0Z" fill="#d73909"/></g><rect x="490.80228571428574" y="247.83085714285716" width="51.024" height="51.024" fill="#2a2a2a"/><g transform="translate(490.8,247.83) scale(1.2755) rotate(0)"><path d="M13 0H20V7L7 20H0V13L13 0Z" fill="#ed3a04"/></g><g transform="translate(556.4,252.69) scale(2.0655) rotate(0)"><path d="M13 0H20V7L7 20H0V13L13 0Z" fill="#312b29"/></g><rect x="622.0068571428571" y="257.5497142857143" width="31.586285714285715" height="31.586285714285715" fill="#2a2a2a"/><g transform="translate(622.01,273.34) scale(0.7895) rotate(0)"><path d="M13 0H20V7L7 20H0V13L13 0Z" fill="#4d2d23"/></g><g transform="translate(637.8,273.34) scale(0.7895) rotate(0)"><path d="M13 0H20V7L7 20H0V13L13 0Z" fill="#9c3414"/></g><rect x="24.29714285714286" y="328.0114285714286" width="12.14857142857143" height="12.14857142857143" fill="#2a2a2a"/><g transform="translate(30.37,328.01) scale(0.3035) rotate(0)"><path d="M13 0H20V7L7 20H0V13L13 0Z" fill="#8d3217"/></g><rect x="139.11849795918368" y="321.34706938775514" width="25.477289795918367" height="25.477289795918367" fill="#2a2a2a"/><g transform="translate(253.94,314.68) scale(1.9405000000000001) rotate(0)"><path d="M13 0H20V7L7 20H0V13L13 0Z" fill="#f43b03"/></g><g transform="translate(625.06,321.35) scale(1.274) rotate(0)"><path d="M13 0H20V7L7 20H0V13L13 0Z" fill="#d73909"/></g><g transform="translate(142.45,385.42) scale(0.9404999999999999) rotate(0)"><path d="M13 0H20V7L7 20H0V13L13 0Z" fill="#d2380a"/></g><g transform="translate(260.6,382.09) scale(1.274) rotate(0)"><path d="M13 0H20V7L7 20H0V13L13 0Z" fill="#7b311a"/></g><rect x="441.1666938775511" y="380.42383673469396" width="28.8094693877551" height="28.8094693877551" fill="#2a2a2a"/><g transform="translate(455.57,380.42) scale(0.72) rotate(0)"><path d="M13 0H20V7L7 20H0V13L13 0Z" fill="#ee3a04"/></g><g transform="translate(441.17,394.83) scale(0.72) rotate(0)"><path d="M13 0H20V7L7 20H0V13L13 0Z" fill="#352b28"/></g><g transform="translate(565.98,383.76) scale(1.1075) rotate(0)"><path d="M13 0H20V7L7 20H0V13L13 0Z" fill="#9f3413"/></g><rect x="690.8024816326531" y="387.08819591836743" width="15.480751020408164" height="15.480751020408164" fill="#2a2a2a"/></g></svg>