<?xml version="1.0" standalone="no"?><svg xmlns:xlink="http://www.w3.org/1999/xlink" xmlns="http://www.w3.org/2000/svg" viewBox="0 0 1000 1400.010536297545" preserveAspectRatio="xMaxYMax slice"><g transform="scale(3.292592982825835)"><rect x="0" y="0" width="303.7142857142857" height="425.20000000000005" fill="#ffffff"/><rect x="0" y="0" width="60.74" height="60.74" fill="#f99480"/><path d="M 0 0 A 60.74 60.74 0 0 1 60.74 60.74 L 0 60.74L0 0" fill="#fccec5"/><rect x="60.74" y="0" width="60.74" height="60.74" fill="#fffaf9"/><polygon points="60.74,0 121.48,0 60.74,60.74" fill="#f53e1a"/><rect x="121.49" y="0" width="60.74" height="60.74" fill="#d9d9d9"/><rect x="121.49" y="0" width="60.74" height="60.74" fill="#efefef"/><rect x="182.23" y="0" width="60.74" height="60.74" fill="#bbbbbb"/><polygon points="182.23,0 242.97,0 182.23,60.74" fill="#f2f2f2"/><rect x="242.97" y="0" width="60.74" height="60.74" fill="#f9937e"/><rect x="242.97" y="0" width="60.74" height="60.74" fill="#f5f5f5"/><rect x="0" y="60.74" width="60.74" height="60.74" fill="#e6e6e6"/><path d="M 0 60.74 A 60.74 60.74 0 0 1 60.74 121.48 L 0 121.48L0 60.74" fill="#5e5e5e"/><rect x="60.74" y="60.74" width="60.74" height="60.74" fill="#595959"/><path d="M 60.74 121.48 A 60.74 60.74 0 0 0 121.48 60.74 L 60.74 60.74L60.74 121.48" fill="#f98972"/><rect x="121.49" y="60.74" width="60.74" height="60.74" fill="#f64b29"/><rect x="121.49" y="60.74" width="60.74" height="60.74" fill="#f87d65"/><rect x="182.23" y="60.74" width="60.74" height="60.74" fill="#fa9884"/><path d="M 182.23 121.48 A 60.74 60.74 0 0 1  242.97 60.74 L 182.23 121.48 A 60.74 60.74 0 0 0 242.97 60.74" fill="#dcdcdc"/><rect x="242.97" y="60.74" width="60.74" height="60.74" fill="#eeeeee"/><rect x="242.97" y="60.74" width="60.74" height="60.74" fill="#404040"/><rect x="0" y="121.49" width="60.74" height="60.74" fill="#fcbfb3"/><polygon points="60.74,121.49 60.74,182.23 0,182.23" fill="#fbb8aa"/><rect x="60.74" y="121.49" width="60.74" height="60.74" fill="#fbb0a1"/><path d="M 60.74 182.23 A 60.74 60.74 0 0 1  121.48 121.49 L 121.48 182.23L60.74 182.23" fill="#f53c17"/><rect x="121.49" y="121.49" width="60.74" height="60.74" fill="#f5411e"/><polygon points="182.23,121.49 182.23,182.23 121.49,182.23" fill="#5a5a5a"/><rect x="182.23" y="121.49" width="60.74" height="60.74" fill="#fdded8"/><polygon points="242.97,121.49 242.97,182.23 182.23,182.23" fill="#fdd6ce"/><rect x="242.97" y="121.49" width="60.74" height="60.74" fill="#818181"/><path d="M 242.97 182.23 A 60.74 60.74 0 0 0 303.71 121.49 L 242.97 121.49L242.97 182.23" fill="#6e6e6e"/><rect x="0" y="182.23" width="60.74" height="60.74" fill="#f8755b"/><path d="M 0 182.23 A 60.74 60.74 0 0 1  60.74 242.97 L 0 182.23 A 60.74 60.74 0 0 0 60.74 242.97" fill="#f9836c"/><rect x="60.74" y="182.23" width="60.74" height="60.74" fill="#474747"/><polygon points="60.74,182.23 121.48,182.23 60.74,242.97" fill="#f98973"/><rect x="121.49" y="182.23" width="60.74" height="60.74" fill="#fa9a86"/><polygon points="121.49,182.23 182.23,182.23 182.23,242.97" fill="#919191"/><rect x="182.23" y="182.23" width="60.74" height="60.74" fill="#f4330d"/><rect x="182.23" y="182.23" width="60.74" height="60.74" fill="#f4340e"/><rect x="242.97" y="182.23" width="60.74" height="60.74" fill="#f54724"/><polygon points="242.97,182.23 303.71,182.23 303.71,242.97" fill="#fff6f4"/><rect x="0" y="242.97" width="60.74" height="60.74" fill="#b2b2b2"/><rect x="0" y="242.97" width="60.74" height="60.74" fill="#f0f0f0"/><rect x="60.74" y="242.97" width="60.74" height="60.74" fill="#fbb0a1"/><rect x="60.74" y="242.97" width="60.74" height="60.74" fill="#f76b50"/><rect x="121.49" y="242.97" width="60.74" height="60.74" fill="#b6b6b6"/><polygon points="121.49,242.97 182.23,303.71 121.49,303.71" fill="#d1d1d1"/><rect x="182.23" y="242.97" width="60.74" height="60.74" fill="#fffefe"/><path d="M 182.23 242.97 A 60.74 60.74 0 0 1  242.97 303.71 L 182.23 242.97 A 60.74 60.74 0 0 0 242.97 303.71" fill="#8a8a8a"/><rect x="242.97" y="242.97" width="60.74" height="60.74" fill="#bcbcbc"/><path d="M 242.97 242.97 A 60.74 60.74 0 0 0 303.71 303.71 L 303.71 242.97L242.97 242.97" fill="#929292"/><rect x="0" y="303.71" width="60.74" height="60.74" fill="#fa9682"/><path d="M 0 303.71 A 60.74 60.74 0 0 0 60.74 364.45 L 60.74 303.71L0 303.71" fill="#f98b75"/><rect x="60.74" y="303.71" width="60.74" height="60.74" fill="#565656"/><rect x="60.74" y="303.71" width="60.74" height="60.74" fill="#d0d0d0"/><rect x="121.49" y="303.71" width="60.74" height="60.74" fill="#fa9b89"/><path d="M 121.49 303.71 A 60.74 60.74 0 0 0 182.23 364.45 L 182.23 303.71L121.49 303.71" fill="#a1a1a1"/><rect x="182.23" y="303.71" width="60.74" height="60.74" fill="#c7c7c7"/><rect x="182.23" y="303.71" width="60.74" height="60.74" fill="#f98f79"/><rect x="242.97" y="303.71" width="60.74" height="60.74" fill="#6a6a6a"/><path d="M 242.97 364.45 A 60.74 60.74 0 0 0 303.71 303.71 L 242.97 303.71L242.97 364.45" fill="#c0c0c0"/><rect x="0" y="364.46" width="60.74" height="60.74" fill="#fbb8aa"/><path d="M 0 364.46 A 60.74 60.74 0 0 1  60.74 425.2 L 0 364.46 A 60.74 60.74 0 0 0 60.74 425.2" fill="#f65535"/><rect x="60.74" y="364.46" width="60.74" height="60.74" fill="#fbb9ac"/><polygon points="121.48,364.46 121.48,425.2 60.74,425.2" fill="#f42e07"/><rect x="121.49" y="364.46" width="60.74" height="60.74" fill="#f87a61"/><rect x="121.49" y="364.46" width="60.74" height="60.74" fill="#666666"/><rect x="182.23" y="364.46" width="60.74" height="60.74" fill="#fa9783"/><polygon points="242.97,364.46 242.97,425.2 182.23,425.2" fill="#fdddd7"/><rect x="242.97" y="364.46" width="60.74" height="60.74" fill="#fee7e2"/><polygon points="242.97,364.46 303.71,364.46 303.71,425.2" fill="#7c7c7c"/></g></svg>