<?xml version="1.0" standalone="no"?><svg xmlns:xlink="http://www.w3.org/1999/xlink" xmlns="http://www.w3.org/2000/svg" viewBox="0 0 1000 1400.010536297545" preserveAspectRatio="xMaxYMax slice"><g transform="scale(3.292592982825835)"><rect x="0" y="0" width="303.7142857142857" height="425.20000000000005" fill="#ffffff"/><rect x="0" y="0" width="60.74285714285715" height="60.74285714285715" fill="#ffffff"/><rect x="0" y="0" width="30.37" height="30.37" fill="#fccdc3"/><path d="M 0 0 A 30.37 30.37 0 0 1  30.37 30.37 L 0 0 A 30.37 30.37 0 0 0 30.37 30.37" fill="#2f2f2f"/><rect x="30.37" y="0" width="30.37" height="30.37" fill="#414141"/><path d="M 30.37 0 A 30.37 30.37 0 0 1 60.74 30.37 L 30.37 30.37L30.37 0" fill="#8c8c8c"/><rect x="0" y="30.37" width="30.37" height="30.37" fill="#7d7d7d"/><path d="M 0 60.74 A 30.37 30.37 0 0 1  30.37 30.37 L 30.37 60.74L0 60.74" fill="#fee3de"/><rect x="30.37" y="30.37" width="30.37" height="30.37" fill="#e2e2e2"/><path d="M 30.37 60.74 A 30.37 30.37 0 0 0 60.74 30.37 L 30.37 30.37L30.37 60.74" fill="#fddfd9"/><rect x="60.74" y="0" width="60.74" height="60.74" fill="#feece9"/><path d="M 60.74 0 A 60.74 60.74 0 0 0 121.48 60.74 L 121.48 0L60.74 0" fill="#3b3b3b"/><rect x="121.49" y="0" width="60.74" height="60.74" fill="#a2a2a2"/><path d="M 121.49 60.74 A 60.74 60.74 0 0 1  182.23 0 L 182.23 60.74L121.49 60.74" fill="#606060"/><rect x="182.22857142857146" y="0" width="60.74285714285715" height="60.74285714285715" fill="#ffffff"/><rect x="182.23" y="0" width="30.37" height="30.37" fill="#fee8e3"/><path d="M 182.23 0 A 30.37 30.37 0 0 0 212.6 30.37 L 212.6 0L182.23 0" fill="#3a3a3a"/><rect x="212.6" y="0" width="30.37" height="30.37" fill="#3e3e3e"/><path d="M 212.6 0 A 30.37 30.37 0 0 1  242.97 30.37 L 212.6 0 A 30.37 30.37 0 0 0 242.97 30.37" fill="#bbbbbb"/><rect x="182.23" y="30.37" width="30.37" height="30.37" fill="#e8e8e8"/><path d="M 182.23 30.37 A 30.37 30.37 0 0 1  212.6 60.74 L 182.23 30.37 A 30.37 30.37 0 0 0 212.6 60.74" fill="#f6f6f6"/><rect x="212.6" y="30.37" width="30.37" height="30.37" fill="#f4f4f4"/><path d="M 212.6 60.74 A 30.37 30.37 0 0 0 242.97 30.37 L 212.6 30.37L212.6 60.74" fill="#dedede"/><rect x="242.9714285714286" y="0" width="60.74285714285715" height="60.74285714285715" fill="#ffffff"/><rect x="242.97" y="0" width="30.37" height="30.37" fill="#f5401c"/><path d="M 242.97 0 A 30.37 30.37 0 0 0 273.34 30.37 L 273.34 0L242.97 0" fill="#fff7f6"/><rect x="273.34" y="0" width="30.37" height="30.37" fill="#dfdfdf"/><path d="M 273.34 30.37 A 30.37 30.37 0 0 1  303.71 0 L 303.71 30.37L273.34 30.37" fill="#f87960"/><rect x="242.97" y="30.37" width="30.37" height="30.37" fill="#e6e6e6"/><path d="M 242.97 60.74 A 30.37 30.37 0 0 1  273.34 30.37 L 273.34 60.74L242.97 60.74" fill="#fee8e4"/><rect x="273.34" y="30.37" width="30.37" height="30.37" fill="#898989"/><path d="M 273.34 60.74 A 30.37 30.37 0 0 0 303.71 30.37 L 273.34 30.37L273.34 60.74" fill="#f88169"/><rect x="0" y="60.74" width="60.74" height="60.74" fill="#555555"/><path d="M 0 121.48 A 60.74 60.74 0 0 0 60.74 60.74 L 0 60.74L0 121.48" fill="#fbbaad"/><rect x="60.74" y="60.74" width="60.74" height="60.74" fill="#fcc2b6"/><path d="M 60.74 60.74 A 60.74 60.74 0 0 1  121.48 121.48 L 60.74 60.74 A 60.74 60.74 0 0 0 121.48 121.48" fill="#979797"/><rect x="121.49" y="60.74" width="60.74" height="60.74" fill="#8d8d8d"/><path d="M 121.49 121.48 A 60.74 60.74 0 0 1  182.23 60.74 L 121.49 121.48 A 60.74 60.74 0 0 0 182.23 60.74" fill="#fddad3"/><rect x="182.22857142857146" y="60.74285714285715" width="60.74285714285715" height="60.74285714285715" fill="#ffffff"/><rect x="182.23" y="60.74" width="30.37" height="30.37" fill="#fdd5ce"/><path d="M 182.23 60.74 A 30.37 30.37 0 0 0 212.6 91.11 L 212.6 60.74L182.23 60.74" fill="#f88068"/><rect x="212.6" y="60.74" width="30.37" height="30.37" fill="#fcc1b6"/><path d="M 212.6 60.74 A 30.37 30.37 0 0 0 242.97 91.11 L 242.97 60.74L212.6 60.74" fill="#f53611"/><rect x="182.23" y="91.11" width="30.37" height="30.37" fill="#f6593a"/><path d="M 182.23 121.48 A 30.37 30.37 0 0 0 212.6 91.11 L 182.23 91.11L182.23 121.48" fill="#404040"/><rect x="212.6" y="91.11" width="30.37" height="30.37" fill="#e5e5e5"/><path d="M 212.6 121.48 A 30.37 30.37 0 0 1  242.97 91.11 L 242.97 121.48L212.6 121.48" fill="#fdd5cd"/><rect x="242.9714285714286" y="60.74285714285715" width="60.74285714285715" height="60.74285714285715" fill="#ffffff"/><rect x="242.97" y="60.74" width="30.37" height="30.37" fill="#fbb2a3"/><path d="M 242.97 91.11 A 30.37 30.37 0 0 1  273.34 60.74 L 242.97 91.11 A 30.37 30.37 0 0 0 273.34 60.74" fill="#828282"/><rect x="273.34" y="60.74" width="30.37" height="30.37" fill="#f3f3f3"/><path d="M 273.34 60.74 A 30.37 30.37 0 0 1  303.71 91.11 L 273.34 60.74 A 30.37 30.37 0 0 0 303.71 91.11" fill="#9d9d9d"/><rect x="242.97" y="91.11" width="30.37" height="30.37" fill="#fde0da"/><path d="M 242.97 91.11 A 30.37 30.37 0 0 1  273.34 121.48 L 242.97 91.11 A 30.37 30.37 0 0 0 273.34 121.48" fill="#f86f53"/><rect x="273.34" y="91.11" width="30.37" height="30.37" fill="#f9f9f9"/><path d="M 273.34 121.48 A 30.37 30.37 0 0 1  303.71 91.11 L 303.71 121.48L273.34 121.48" fill="#dcdcdc"/><rect x="0" y="121.4857142857143" width="60.74285714285715" height="60.74285714285715" fill="#ffffff"/><rect x="0" y="121.49" width="30.37" height="30.37" fill="#c6c6c6"/><path d="M 0 121.49 A 30.37 30.37 0 0 0 30.37 151.85999999999999 L 30.37 121.49L0 121.49" fill="#2e2e2e"/><rect x="30.37" y="121.49" width="30.37" height="30.37" fill="#6d6d6d"/><path d="M 30.37 151.85999999999999 A 30.37 30.37 0 0 0 60.74 121.49 L 30.37 121.49L30.37 151.85999999999999" fill="#bfbfbf"/><rect x="0" y="151.86" width="30.37" height="30.37" fill="#f42b03"/><path d="M 0 151.86 A 30.37 30.37 0 0 0 30.37 182.23000000000002 L 30.37 151.86L0 151.86" fill="#616161"/><rect x="30.37" y="151.86" width="30.37" height="30.37" fill="#fcbfb3"/><path d="M 30.37 182.23000000000002 A 30.37 30.37 0 0 0 60.74 151.86 L 30.37 151.86L30.37 182.23000000000002" fill="#f54522"/><rect x="60.74285714285715" y="121.4857142857143" width="60.74285714285715" height="60.74285714285715" fill="#ffffff"/><rect x="60.74" y="121.49" width="30.37" height="30.37" fill="#404040"/><path d="M 60.74 151.85999999999999 A 30.37 30.37 0 0 0 91.11 121.49 L 60.74 121.49L60.74 151.85999999999999" fill="#bdbdbd"/><rect x="91.11" y="121.49" width="30.37" height="30.37" fill="#f65737"/><path d="M 91.11 121.49 A 30.37 30.37 0 0 0 121.48 151.85999999999999 L 121.48 121.49L91.11 121.49" fill="#929292"/><rect x="60.74" y="151.86" width="30.37" height="30.37" fill="#f42b03"/><path d="M 60.74 182.23000000000002 A 30.37 30.37 0 0 1  91.11 151.86 L 60.74 182.23000000000002 A 30.37 30.37 0 0 0 91.11 151.86" fill="#7f7f7f"/><rect x="91.11" y="151.86" width="30.37" height="30.37" fill="#fddad3"/><path d="M 91.11 151.86 A 30.37 30.37 0 0 0 121.48 182.23000000000002 L 121.48 151.86L91.11 151.86" fill="#9b9b9b"/><rect x="121.49" y="121.49" width="60.74" height="60.74" fill="#fbbaad"/><path d="M 121.49 121.49 A 60.74 60.74 0 0 1 182.23 182.23 L 121.49 182.23L121.49 121.49" fill="#4e4e4e"/><rect x="182.22857142857146" y="121.4857142857143" width="60.74285714285715" height="60.74285714285715" fill="#ffffff"/><rect x="182.23" y="121.49" width="30.37" height="30.37" fill="#f65434"/><path d="M 182.23 121.49 A 30.37 30.37 0 0 0 212.6 151.85999999999999 L 212.6 121.49L182.23 121.49" fill="#9b9b9b"/><rect x="212.6" y="121.49" width="30.37" height="30.37" fill="#787878"/><path d="M 212.6 151.85999999999999 A 30.37 30.37 0 0 0 242.97 121.49 L 212.6 121.49L212.6 151.85999999999999" fill="#f3f3f3"/><rect x="182.23" y="151.86" width="30.37" height="30.37" fill="#8a8a8a"/><path d="M 182.23 151.86 A 30.37 30.37 0 0 1  212.6 182.23000000000002 L 182.23 151.86 A 30.37 30.37 0 0 0 212.6 182.23000000000002" fill="#535353"/><rect x="212.6" y="151.86" width="30.37" height="30.37" fill="#f5411d"/><path d="M 212.6 182.23000000000002 A 30.37 30.37 0 0 1  242.97 151.86 L 212.6 182.23000000000002 A 30.37 30.37 0 0 0 242.97 151.86" fill="#faa18f"/><rect x="242.97" y="121.49" width="60.74" height="60.74" fill="#a3a3a3"/><path d="M 242.97 182.23 A 60.74 60.74 0 0 1  303.71 121.49 L 303.71 182.23L242.97 182.23" fill="#6c6c6c"/><rect x="0" y="182.23" width="60.74" height="60.74" fill="#818181"/><path d="M 0 242.97 A 60.74 60.74 0 0 0 60.74 182.23 L 0 182.23L0 242.97" fill="#494949"/><rect x="60.74285714285715" y="182.22857142857146" width="60.74285714285715" height="60.74285714285715" fill="#ffffff"/><rect x="60.74" y="182.23" width="30.37" height="30.37" fill="#fbb3a4"/><path d="M 60.74 212.6 A 30.37 30.37 0 0 0 91.11 182.23 L 60.74 182.23L60.74 212.6" fill="#f6f6f6"/><rect x="91.11" y="182.23" width="30.37" height="30.37" fill="#f65738"/><path d="M 91.11 212.6 A 30.37 30.37 0 0 0 121.48 182.23 L 91.11 182.23L91.11 212.6" fill="#999999"/><rect x="60.74" y="212.6" width="30.37" height="30.37" fill="#fbb7a9"/><path d="M 60.74 242.97 A 30.37 30.37 0 0 1  91.11 212.6 L 60.74 242.97 A 30.37 30.37 0 0 0 91.11 212.6" fill="#939393"/><rect x="91.11" y="212.6" width="30.37" height="30.37" fill="#fdd9d2"/><path d="M 91.11 242.97 A 30.37 30.37 0 0 1  121.48 212.6 L 121.48 242.97L91.11 242.97" fill="#fee8e4"/><rect x="121.49" y="182.23" width="60.74" height="60.74" fill="#a3a3a3"/><path d="M 121.49 182.23 A 60.74 60.74 0 0 1  182.23 242.97 L 121.49 182.23 A 60.74 60.74 0 0 0 182.23 242.97" fill="#b1b1b1"/><rect x="182.23" y="182.23" width="60.74" height="60.74" fill="#faa392"/><path d="M 182.23 182.23 A 60.74 60.74 0 0 0 242.97 242.97 L 242.97 182.23L182.23 182.23" fill="#616161"/><rect x="242.97" y="182.23" width="60.74" height="60.74" fill="#2e2e2e"/><path d="M 242.97 242.97 A 60.74 60.74 0 0 1  303.71 182.23 L 242.97 242.97 A 60.74 60.74 0 0 0 303.71 182.23" fill="#fef3f0"/><rect x="0" y="242.9714285714286" width="60.74285714285715" height="60.74285714285715" fill="#ffffff"/><rect x="0" y="242.97" width="30.37" height="30.37" fill="#949494"/><path d="M 0 273.34 A 30.37 30.37 0 0 1  30.37 242.97 L 0 273.34 A 30.37 30.37 0 0 0 30.37 242.97" fill="#f75f40"/><rect x="30.37" y="242.97" width="30.37" height="30.37" fill="#9a9a9a"/><path d="M 30.37 273.34 A 30.37 30.37 0 0 0 60.74 242.97 L 30.37 242.97L30.37 273.34" fill="#acacac"/><rect x="0" y="273.34" width="30.37" height="30.37" fill="#b3b3b3"/><path d="M 0 303.71 A 30.37 30.37 0 0 1  30.37 273.34 L 0 303.71 A 30.37 30.37 0 0 0 30.37 273.34" fill="#f9856e"/><rect x="30.37" y="273.34" width="30.37" height="30.37" fill="#fdd2c9"/><path d="M 30.37 273.34 A 30.37 30.37 0 0 1  60.74 303.71 L 30.37 273.34 A 30.37 30.37 0 0 0 60.74 303.71" fill="#fcfcfc"/><rect x="60.74285714285715" y="242.9714285714286" width="60.74285714285715" height="60.74285714285715" fill="#ffffff"/><rect x="60.74" y="242.97" width="30.37" height="30.37" fill="#fefefe"/><path d="M 60.74 273.34 A 30.37 30.37 0 0 1  91.11 242.97 L 60.74 273.34 A 30.37 30.37 0 0 0 91.11 242.97" fill="#9c9c9c"/><rect x="91.11" y="242.97" width="30.37" height="30.37" fill="#f9917c"/><path d="M 91.11 273.34 A 30.37 30.37 0 0 0 121.48 242.97 L 91.11 242.97L91.11 273.34" fill="#5c5c5c"/><rect x="60.74" y="273.34" width="30.37" height="30.37" fill="#f7674a"/><path d="M 60.74 273.34 A 30.37 30.37 0 0 1  91.11 303.71 L 60.74 273.34 A 30.37 30.37 0 0 0 91.11 303.71" fill="#f75f41"/><rect x="91.11" y="273.34" width="30.37" height="30.37" fill="#555555"/><path d="M 91.11 273.34 A 30.37 30.37 0 0 0 121.48 303.71 L 121.48 273.34L91.11 273.34" fill="#faa08e"/><rect x="121.4857142857143" y="242.9714285714286" width="60.74285714285715" height="60.74285714285715" fill="#ffffff"/><rect x="121.49" y="242.97" width="30.37" height="30.37" fill="#717171"/><path d="M 121.49 273.34 A 30.37 30.37 0 0 1  151.85999999999999 242.97 L 121.49 273.34 A 30.37 30.37 0 0 0 151.85999999999999 242.97" fill="#f65130"/><rect x="151.86" y="242.97" width="30.37" height="30.37" fill="#ebebeb"/><path d="M 151.86 242.97 A 30.37 30.37 0 0 1 182.23000000000002 273.34 L 151.86 273.34L151.86 242.97" fill="#f8775e"/><rect x="121.49" y="273.34" width="30.37" height="30.37" fill="#fa9682"/><path d="M 121.49 303.71 A 30.37 30.37 0 0 1  151.85999999999999 273.34 L 151.85999999999999 303.71L121.49 303.71" fill="#eaeaea"/><rect x="151.86" y="273.34" width="30.37" height="30.37" fill="#f8745a"/><path d="M 151.86 273.34 A 30.37 30.37 0 0 0 182.23000000000002 303.71 L 182.23000000000002 273.34L151.86 273.34" fill="#7a7a7a"/><rect x="182.22857142857146" y="242.9714285714286" width="60.74285714285715" height="60.74285714285715" fill="#ffffff"/><rect x="182.23" y="242.97" width="30.37" height="30.37" fill="#949494"/><path d="M 182.23 242.97 A 30.37 30.37 0 0 1  212.6 273.34 L 182.23 242.97 A 30.37 30.37 0 0 0 212.6 273.34" fill="#c3c3c3"/><rect x="212.6" y="242.97" width="30.37" height="30.37" fill="#f53c17"/><path d="M 212.6 242.97 A 30.37 30.37 0 0 0 242.97 273.34 L 242.97 242.97L212.6 242.97" fill="#fcc7bc"/><rect x="182.23" y="273.34" width="30.37" height="30.37" fill="#f86f54"/><path d="M 182.23 273.34 A 30.37 30.37 0 0 0 212.6 303.71 L 212.6 273.34L182.23 273.34" fill="#2f2f2f"/><rect x="212.6" y="273.34" width="30.37" height="30.37" fill="#fde0da"/><path d="M 212.6 273.34 A 30.37 30.37 0 0 1 242.97 303.71 L 212.6 303.71L212.6 273.34" fill="#f4320b"/><rect x="242.97" y="242.97" width="60.74" height="60.74" fill="#f87c64"/><path d="M 242.97 303.71 A 60.74 60.74 0 0 1  303.71 242.97 L 242.97 303.71 A 60.74 60.74 0 0 0 303.71 242.97" fill="#fbb8ab"/><rect x="0" y="303.7142857142857" width="60.74285714285715" height="60.74285714285715" fill="#ffffff"/><rect x="0" y="303.71" width="30.37" height="30.37" fill="#f88169"/><path d="M 0 303.71 A 30.37 30.37 0 0 0 30.37 334.08 L 30.37 303.71L0 303.71" fill="#2c2c2c"/><rect x="30.37" y="303.71" width="30.37" height="30.37" fill="#f8765c"/><path d="M 30.37 303.71 A 30.37 30.37 0 0 1 60.74 334.08 L 30.37 334.08L30.37 303.71" fill="#2b2b2b"/><rect x="0" y="334.09" width="30.37" height="30.37" fill="#787878"/><path d="M 0 364.46 A 30.37 30.37 0 0 1  30.37 334.09 L 0 364.46 A 30.37 30.37 0 0 0 30.37 334.09" fill="#f75f41"/><rect x="30.37" y="334.09" width="30.37" height="30.37" fill="#f53f1a"/><path d="M 30.37 364.46 A 30.37 30.37 0 0 1  60.74 334.09 L 30.37 364.46 A 30.37 30.37 0 0 0 60.74 334.09" fill="#4b4b4b"/><rect x="60.74285714285715" y="303.7142857142857" width="60.74285714285715" height="60.74285714285715" fill="#ffffff"/><rect x="60.74" y="303.71" width="30.37" height="30.37" fill="#8b8b8b"/><path d="M 60.74 303.71 A 30.37 30.37 0 0 1  91.11 334.08 L 60.74 303.71 A 30.37 30.37 0 0 0 91.11 334.08" fill="#d9d9d9"/><rect x="91.11" y="303.71" width="30.37" height="30.37" fill="#525252"/><path d="M 91.11 303.71 A 30.37 30.37 0 0 1 121.48 334.08 L 91.11 334.08L91.11 303.71" fill="#474747"/><rect x="60.74" y="334.09" width="30.37" height="30.37" fill="#fbae9e"/><path d="M 60.74 334.09 A 30.37 30.37 0 0 1 91.11 364.46 L 60.74 364.46L60.74 334.09" fill="#fdd4cc"/><rect x="91.11" y="334.09" width="30.37" height="30.37" fill="#fcbcb0"/><path d="M 91.11 334.09 A 30.37 30.37 0 0 1 121.48 364.46 L 91.11 364.46L91.11 334.09" fill="#bfbfbf"/><rect x="121.49" y="303.71" width="60.74" height="60.74" fill="#f87960"/><path d="M 121.49 364.45 A 60.74 60.74 0 0 1  182.23 303.71 L 121.49 364.45 A 60.74 60.74 0 0 0 182.23 303.71" fill="#363636"/><rect x="182.22857142857146" y="303.7142857142857" width="60.74285714285715" height="60.74285714285715" fill="#ffffff"/><rect x="182.23" y="303.71" width="30.37" height="30.37" fill="#f4f4f4"/><path d="M 182.23 334.08 A 30.37 30.37 0 0 0 212.6 303.71 L 182.23 303.71L182.23 334.08" fill="#c3c3c3"/><rect x="212.6" y="303.71" width="30.37" height="30.37" fill="#696969"/><path d="M 212.6 334.08 A 30.37 30.37 0 0 0 242.97 303.71 L 212.6 303.71L212.6 334.08" fill="#7f7f7f"/><rect x="182.23" y="334.09" width="30.37" height="30.37" fill="#faa492"/><path d="M 182.23 334.09 A 30.37 30.37 0 0 1 212.6 364.46 L 182.23 364.46L182.23 334.09" fill="#5f5f5f"/><rect x="212.6" y="334.09" width="30.37" height="30.37" fill="#424242"/><path d="M 212.6 334.09 A 30.37 30.37 0 0 0 242.97 364.46 L 242.97 334.09L212.6 334.09" fill="#f53e1a"/><rect x="242.97" y="303.71" width="60.74" height="60.74" fill="#313131"/><path d="M 242.97 303.71 A 60.74 60.74 0 0 0 303.71 364.45 L 303.71 303.71L242.97 303.71" fill="#fdd2c9"/><rect x="0" y="364.46" width="60.74" height="60.74" fill="#a0a0a0"/><path d="M 0 425.2 A 60.74 60.74 0 0 1  60.74 364.46 L 0 425.2 A 60.74 60.74 0 0 0 60.74 364.46" fill="#9b9b9b"/><rect x="60.74285714285715" y="364.4571428571429" width="60.74285714285715" height="60.74285714285715" fill="#ffffff"/><rect x="60.74" y="364.46" width="30.37" height="30.37" fill="#fffbfa"/><path d="M 60.74 364.46 A 30.37 30.37 0 0 0 91.11 394.83 L 91.11 364.46L60.74 364.46" fill="#f65939"/><rect x="91.11" y="364.46" width="30.37" height="30.37" fill="#f65737"/><path d="M 91.11 364.46 A 30.37 30.37 0 0 1 121.48 394.83 L 91.11 394.83L91.11 364.46" fill="#f54421"/><rect x="60.74" y="394.83" width="30.37" height="30.37" fill="#fbb1a3"/><path d="M 60.74 425.2 A 30.37 30.37 0 0 1  91.11 394.83 L 91.11 425.2L60.74 425.2" fill="#fa9985"/><rect x="91.11" y="394.83" width="30.37" height="30.37" fill="#fbb4a6"/><path d="M 91.11 425.2 A 30.37 30.37 0 0 1  121.48 394.83 L 121.48 425.2L91.11 425.2" fill="#626262"/><rect x="121.49" y="364.46" width="60.74" height="60.74" fill="#fa9d8b"/><path d="M 121.49 364.46 A 60.74 60.74 0 0 1 182.23 425.2 L 121.49 425.2L121.49 364.46" fill="#fccbc1"/><rect x="182.23" y="364.46" width="60.74" height="60.74" fill="#505050"/><path d="M 182.23 364.46 A 60.74 60.74 0 0 1 242.97 425.2 L 182.23 425.2L182.23 364.46" fill="#fbb0a1"/><rect x="242.97" y="364.46" width="60.74" height="60.74" fill="#f87960"/><path d="M 242.97 425.2 A 60.74 60.74 0 0 1  303.71 364.46 L 242.97 425.2 A 60.74 60.74 0 0 0 303.71 364.46" fill="#4a4a4a"/></g></svg>